Coordinates
version=1
nRows=14
nColumns=36
inDegrees=yes

Units are S.I. units (second, meters, Newtons, ...)
If the header above contains a line with 'inDegrees', this indicates whether rotational values are in degrees (yes) or radians (no).

endheader
time	pelvis_tilt	pelvis_list	pelvis_rotation	pelvis_tx	pelvis_ty	pelvis_tz	hip_flexion_r	hip_adduction_r	hip_rotation_r	knee_angle_r	knee_angle_r_beta	ankle_angle_r	subtalar_angle_r	mtp_angle_r	hip_flexion_l	hip_adduction_l	hip_rotation_l	knee_angle_l	knee_angle_l_beta	ankle_angle_l	subtalar_angle_l	mtp_angle_l	lumbar_extension	lumbar_bending	lumbar_rotation	arm_flex_r	arm_add_r	arm_rot_r	elbow_flex_r	pro_sup_r	arm_flex_l	arm_add_l	arm_rot_l	elbow_flex_l	pro_sup_l
      0.00000000	      4.44658251	     -0.48507720	      9.95126683	     -0.17399828	      0.92327126	      0.03439247	      1.98486938	      1.14188356	     -2.27213478	      6.83381784	      0.11927262	      3.02519721	     -2.32144474	     -7.40585519	      0.87355286	      0.60967682	     -0.16835318	      3.00827875	      0.05250437	      5.81146687	      0.76570947	     -7.40585519	     -3.01819616	      4.79177320	      4.82202152	     46.90511413	     21.05822084	     66.10255671	    128.90503780	    102.18713488	     61.68752254	     25.95608605	     63.63373911	    113.94768735	    103.56927083
      0.01666670	      3.21531282	      0.11292831	      9.28763851	     -0.16976853	      0.92161058	      0.03505342	      3.83145980	      0.31803977	     -1.99133358	      7.31317191	      0.12763893	      5.19065960	     -2.13875033	     -7.42217945	      2.11748505	      1.73862883	      0.95464803	      3.06991492	      0.05358012	      5.05714998	      0.04580830	     -7.42217945	     -0.85507971	      4.55302885	      4.09116792	     46.88199669	     23.37833625	     66.22987470	    129.67657488	    104.13580736	     62.33750362	     24.51508624	     61.61239273	    117.77956633	     99.89249799
      0.03333330	      1.93540983	      0.88785952	      8.76515614	     -0.16846885	      0.92021840	      0.03655992	      4.79551856	     -0.62228522	     -2.40129362	      6.78293285	      0.11838451	      5.40947500	     -2.00228514	     -7.45785666	      3.38256370	      2.68196373	      0.58892621	      3.08934025	      0.05391916	      4.55728754	      0.55684076	     -7.45785666	      0.89287098	      3.33691534	      5.39332213	     45.72273196	     22.90417378	     66.32679905	    130.75542595	    106.51067948	     60.97999698	     24.54666141	     61.92281531	    118.96238187	     99.06433624
      0.05000000	      1.60787033	      1.38818604	      8.33449764	     -0.16749002	      0.92133429	      0.03676893	      5.01654852	     -1.16562859	     -2.40217682	      6.70698866	      0.11705904	      5.82690183	     -1.86100457	     -7.46440009	      3.32010182	      3.20423831	      0.84826346	      2.72504252	      0.04756096	      4.10803319	      0.68324764	     -7.46440009	      1.28682714	      2.68878947	      6.56240859	     45.51829071	     22.31607203	     66.61426052	    130.98144423	    104.67218780	     60.33803738	     24.77049536	     62.53023630	    118.41557447	     97.76564948
      0.06666670	      1.33159812	      1.58292987	      7.96684502	     -0.16928118	      0.92116504	      0.03731887	      5.26731754	     -1.33114652	     -2.14384280	      6.53407675	      0.11404115	      5.76642521	     -2.13748373	     -7.47119869	      3.56256452	      3.42437888	      0.96226208	      2.64081731	      0.04609096	      3.75246511	      0.55357187	     -7.47119869	      1.47417024	      2.53057553	      6.88446802	     45.21193054	     22.22318519	     67.61860468	    130.66095001	    101.65621567	     60.26659157	     24.60399118	     63.34529891	    118.20465637	     95.46540628
      0.08333330	      1.12847589	      1.65388348	      7.87508801	     -0.16831460	      0.92248906	      0.03779770	      5.23319715	     -1.40278813	     -2.39220020	      6.18546489	      0.10795673	      5.67430371	     -1.78856376	     -7.48460298	      3.74772935	      3.51715541	      1.59690741	      2.63058858	      0.04591243	      3.36564747	     -0.23782510	     -7.48460298	      1.74817856	      2.50596957	      6.89613189	     44.40716141	     21.83026414	     66.89711359	    129.92193357	    104.05992034	     59.87404921	     24.31463626	     63.41611920	    118.11093471	    100.82371551
      0.10000000	      1.14539406	      1.66218450	      7.59484563	     -0.16810814	      0.92307134	      0.03785082	      4.98376734	     -1.37978989	     -2.37170537	      5.71420417	      0.09973168	      5.19712424	     -1.74060253	     -7.48726892	      3.61352352	      3.52987362	      1.75525577	      2.35815154	      0.04115751	      3.14684732	     -0.64395968	     -7.48726892	      1.79546813	      2.61035054	      7.07346972	     44.08270687	     21.37241595	     66.16181153	    129.14396343	    100.29319509	     59.50169459	     24.00521080	     63.63980725	    118.03154323	     97.27928169
      0.11666670	      1.04620039	      1.62692075	      7.46458551	     -0.16797793	      0.92097374	      0.03829672	      4.94139308	     -1.28222238	     -2.23466866	      5.27299832	      0.09203118	      4.98132024	     -1.58538654	     -7.49536571	      3.59589295	      3.51038605	      1.79363092	      2.05822051	      0.03592272	      3.19695619	     -0.76745377	     -7.49536571	      1.97951987	      2.64091367	      7.05367086	     44.00389399	     21.40070961	     65.97478599	    128.88603721	    101.80150677	     59.35106323	     23.95997340	     63.70187902	    118.10100051	     99.35078285
      0.13333330	      1.02054707	      1.62211923	      7.32627877	     -0.16879149	      0.92165678	      0.03840614	      4.81758295	     -1.23410088	     -2.20842795	      4.89752309	      0.08547790	      4.98046081	     -1.30092832	     -7.49759086	      3.57328592	      3.53021728	      1.97760950	      1.82550482	      0.03186107	      3.15236912	     -0.95291758	     -7.49759086	      2.02741118	      2.69281570	      6.89724667	     43.98606344	     21.73065010	     66.15630128	    128.49886498	    101.09852408	     59.41489170	     23.96924857	     63.84702938	    118.36232647	     98.50543433
      0.15000000	      1.04716610	      1.60027045	      7.14688423	     -0.16875720	      0.92066531	      0.03855025	      4.66569819	     -1.16793814	     -2.08614409	      4.55313881	      0.07946726	      4.83664287	     -1.13599120	     -7.49913843	      3.50571141	      3.49667018	      2.09618561	      1.64706435	      0.02874670	      3.17164126	     -1.07231114	     -7.49913843	      2.02193271	      2.72952874	      6.95638524	     43.73864058	     21.76644497	     65.68798906	    127.93335934	    100.86733428	     59.27932126	     24.02762616	     63.60937724	    118.44804509	     97.28748249
      0.16666670	      1.13244362	      1.54634688	      7.05009268	     -0.17084678	      0.92106139	      0.03898200	      4.49894472	     -1.08232922	     -2.16404549	      4.20244016	      0.07334642	      4.67159271	     -0.85861799	     -7.49955323	      3.41035101	      3.42460499	      2.25337009	      1.46465659	      0.02556308	      3.25130220	     -1.03442456	     -7.49955323	      1.87369434	      2.82818949	      7.05666356	     43.99289570	     21.33193626	     64.72218990	    127.31454177	    100.42835390	     59.46580800	     23.94105239	     63.18542883	    118.27437634	     96.19097922
      0.18333330	      1.24841012	      1.47396244	      7.02479438	     -0.16992761	      0.92073418	      0.04039917	      4.15237549	     -0.90463326	     -2.20748965	      3.63656719	      0.06347007	      4.41936667	     -0.62812215	     -7.49972296	      3.21912509	      3.28322667	      2.65323571	      1.25933851	      0.02197960	      3.15493886	     -1.27211629	     -7.49972296	      1.78661812	      2.88227830	      7.03770461	     44.83881465	     21.84765865	     65.79740959	    127.10413465	     95.69016670	     59.70238981	     23.93915390	     63.38286207	    118.12834200	     91.48004541
      0.20000000	      1.14694811	      1.41925119	      6.97119112	     -0.16898977	      0.92043995	      0.03991778	      3.89719357	     -0.79560410	     -2.27362527	      2.98855198	      0.05216007	      4.36977577	     -0.25286361	     -7.49988084	      3.25402728	      3.20554752	      2.57709254	      1.09609011	      0.01913038	      3.34151508	     -0.68365796	     -7.49988084	      1.85962808	      2.84468951	      6.89999395	     45.12052554	     22.74058619	     67.24583876	    127.37690376	    101.06277839	     60.01740266	     24.09544801	     63.35074776	    118.17848475	     95.60787698
      0.21666670	      1.11331082	      1.34192077	      6.78612231	     -0.17076624	      0.92126696	      0.04079475	      3.69209707	     -0.65603577	     -2.24797881	      2.39413147	      0.04178548	      4.22981463	     -0.01446813	     -7.49995120	      3.23222046	      3.08466381	      2.46422304	      0.99431115	      0.01735400	      3.44697359	     -0.37537420	     -7.49995120	      1.74726420	      2.86158858	      7.11826353	     45.68272943	     23.17043885	     68.41375321	    127.54414346	    100.57778249	     60.39041040	     24.07658717	     63.29443170	    117.93176926	     94.97624121
